<?xml version="1.0" encoding="UTF-8"?>
<svg width="164px" height="76px" viewBox="0 0 82 38" version="1.1" xmlns="http://www.w3.org/2000/svg" xmlns:xlink="http://www.w3.org/1999/xlink">
    <title>Group 9456</title>
    <defs>
        <polygon id="path-1" points="0 0 80.816 0 80.816 37.5851 0 37.5851"></polygon>
        <polygon id="path-3" points="0 595.276 841.89 595.276 841.89 0 0 0"></polygon>
    </defs>
    <g id="Page-15" stroke="none" stroke-width="1" fill="none" fill-rule="evenodd">
        <g id="eduroam-Branding-GuideLines-April-2021" transform="translate(-724.000000, -557.000000)">
            <g id="Group-9710" transform="translate(0.000000, -0.000000)">
                <g id="Group-9456" transform="translate(724.561900, 557.690900)">
                    <mask id="mask-2" fill="white">
                        <use xlink:href="#path-1"></use>
                    </mask>
                    <g id="Clip-9455"></g>
                    <path d="M80.816,0 L18.823,0 C8.47,0 0,8.47 0,18.822 C0,29.175 8.47,37.646 18.823,37.646 L80.816,37.646 L80.816,0 Z" id="Fill-9454" fill="#FFFFFF" mask="url(#mask-2)"></path>
                </g>
                <mask id="mask-4" fill="white">
                    <use xlink:href="#path-3"></use>
                </mask>
                <g id="Clip-9458"></g>
            </g>
            <g id="Group-9806" transform="translate(75.707300, 33.742000)">
                <path d="M677.3152,545.4537 C675.3582,545.4537 673.4012,545.0197 671.9112,544.1517 C669.672311,542.8497 669.1132,540.9387 670.2312,539.3317 L670.7602,538.7477 L673.9292,538.8817 L673.9732,538.8817 L673.3922,539.3397 C672.2122,540.4877 672.4092,542.0497 673.9822,543.0587 C674.8802,543.6367 676.0602,543.9257 677.2392,543.9257 C678.4192,543.9257 679.5982,543.6367 680.4972,543.0587 C682.0692,542.0497 682.2662,540.4877 681.0862,539.3397 L680.5312,538.9027 L682.0222,538.8817 L683.9192,538.8017 L684.3982,539.3317 C685.5172,540.9387 684.9582,542.8497 682.7202,544.1517 C681.2292,545.0197 679.2722,545.4537 677.3152,545.4537" id="Fill-9789" fill="#BDD6E5"></path>
                <path d="M690.1999,538.6803 L690.0369,538.4143 L689.7429,538.4453 L687.0519,538.6373 L687.3889,539.1843 C688.4519,541.2193 687.5659,543.5123 684.7309,545.1173 C683.9539,545.5573 683.0859,545.9113 682.1609,546.1863 L686.9999,546.1863 C690.4659,544.1303 691.5339,541.2463 690.1999,538.6803" id="Fill-9790" fill="#BDD6E5"></path>
                <path d="M667.488,546.1881 L672.357,546.1881 C671.432,545.9141 670.564,545.5571 669.788,545.1171 C666.694,543.3661 665.922,540.7961 667.468,538.6351 L667.546,538.5401 L666.209,538.4451 L664.536,538.2751 L664.289,538.6801 C662.953,541.2471 664.021,544.1311 667.488,546.1881" id="Fill-9791" fill="#BDD6E5"></path>
                <path d="M690.7517,546.1862 L694.2537,546.1862 C696.9417,543.6652 697.5477,540.6632 696.0627,537.9252 L695.9397,537.7332 L693.3807,538.0762 L692.8927,538.1242 L693.1707,538.5482 C694.5897,541.1072 693.7817,543.9422 690.7517,546.1862" id="Fill-9792" fill="#BDD6E5"></path>
                <path d="M697.4597,546.1862 L700.7427,546.1862 C703.0717,543.3012 703.4107,540.0692 701.7507,537.0832 L701.5407,536.7662 L700.1057,537.0642 L698.6257,537.3132 L698.8497,537.6502 C700.4247,540.4612 699.9597,543.5232 697.4597,546.1862" id="Fill-9793" fill="#BDD6E5"></path>
                <path d="M703.9245,546.1862 L707.2435,546.1862 C709.2695,542.9822 709.3945,539.5062 707.6115,536.2702 L707.0395,535.3952 L705.9645,535.7242 L704.1905,536.1702 L704.5955,536.7922 C706.2905,539.8652 706.0655,543.1772 703.9245,546.1862" id="Fill-9794" fill="#BDD6E5"></path>
                <path d="M710.3532,546.1881 L713.4122,546.1881 C715.5662,542.0471 715.1302,537.5991 712.1002,533.5841 L712.0532,533.5281 L710.7992,534.1001 L709.5392,534.5661 L710.4432,535.9381 C712.3052,539.2791 712.2732,542.8541 710.3532,546.1881" id="Fill-9795" fill="#BDD6E5"></path>
                <path d="M669.6804,548.9889 C669.6804,548.5249 669.4984,548.1729 668.8624,548.1729 C668.2714,548.1729 668.0554,548.5519 668.0554,548.9889 L669.6804,548.9889 Z M671.9524,550.3359 C671.6004,551.4869 670.3514,552.0149 668.9764,552.0149 C668.1234,552.0149 667.2944,551.8679 666.6354,551.3939 C666.0114,550.9389 665.6814,550.2889 665.6934,549.6109 C665.6814,548.9699 665.9884,548.2749 666.5334,547.8199 C667.1234,547.3179 668.0104,547.0859 668.8394,547.0859 C670.7714,547.0859 671.9524,548.1069 671.9524,549.6669 L671.9524,549.9179 L668.0554,549.9179 C668.0554,550.4279 668.2604,550.7999 668.9424,550.7999 C669.4524,550.7999 669.7374,550.6329 669.8274,550.2239 L671.9524,550.3359 Z" id="Fill-9796" fill="#221F1F"></path>
                <path d="M675.9861,550.5397 C675.8601,550.6977 675.7141,550.7807 675.4861,550.7807 C674.7811,550.7807 674.7481,550.0387 674.7481,549.6207 C674.7481,549.3597 674.7931,548.9987 674.8611,548.7377 C674.9291,548.4507 675.0991,548.2377 675.4971,548.2377 C675.6781,548.2377 675.8831,548.3027 675.9861,548.4227 C676.1331,548.5717 676.1221,548.7937 676.1221,548.9797 L676.1221,549.9357 C676.1221,550.1687 676.1451,550.3357 675.9861,550.5397 M676.1221,542.6857 L676.1221,547.5687 C675.7701,547.2807 675.2931,547.0857 674.7361,547.0857 C672.9861,547.0857 672.4191,548.3577 672.4191,549.5737 C672.4191,550.7437 672.9981,552.0157 674.6681,552.0157 C675.3951,552.0157 675.8831,551.8107 676.2131,551.2917 L676.2361,551.2917 L676.2361,551.9227 L678.3721,551.9227 L678.3721,542.7397 C677.7121,543.2647 676.7611,543.2467 676.1221,542.6857" id="Fill-9797" fill="#221F1F"></path>
                <path d="M682.8132,551.9225 L682.8132,551.1435 L682.7912,551.1435 C682.5522,551.7565 681.7802,552.0155 681.0302,552.0155 C680.5522,552.0155 680.0862,551.9225 679.7352,551.6535 C679.3262,551.3185 679.2802,550.9015 679.2802,550.4555 L679.2802,547.1795 L681.5302,547.1795 L681.5302,550.0475 C681.5302,550.3545 681.5182,550.6785 682.0302,550.6785 C682.2562,550.6785 682.4722,550.5765 682.5752,550.4095 C682.6772,550.2515 682.6882,550.0845 682.6882,549.9075 L682.6882,547.1795 L684.9382,547.1795 L684.9382,551.9225 L682.8132,551.9225 Z" id="Fill-9798" fill="#221F1F"></path>
                <path d="M688.0281,548.1539 C688.2211,547.4949 688.6411,547.0309 689.5391,547.0859 L689.8451,547.1039 L689.8451,548.7659 C689.7101,548.7379 689.5621,548.7199 689.4141,548.7199 C689.0501,548.7199 688.6751,548.7759 688.4941,549.0449 C688.3351,549.2769 688.3351,549.5839 688.3351,549.8619 L688.3351,551.9229 L686.0861,551.9229 L686.0861,547.1789 L688.0061,547.1789 L688.0061,548.1539 L688.0281,548.1539 Z" id="Fill-9799" fill="#0C6A8F"></path>
                <path d="M692.5837,549.527 C692.5837,550.799 692.9587,550.892 693.3677,550.892 C693.7757,550.892 694.1507,550.799 694.1507,549.527 C694.1507,549.073 694.1407,548.247 693.3677,548.247 C692.5957,548.247 692.5837,549.073 692.5837,549.527 M696.5607,549.592 C696.5607,551.032 695.1407,552.015 693.3677,552.015 C691.5957,552.015 690.1757,551.032 690.1757,549.592 C690.1757,548.07 691.5497,547.086 693.3677,547.086 C695.1857,547.086 696.5607,548.07 696.5607,549.592" id="Fill-9800" fill="#0C6A8F"></path>
                <path d="M700.7976,549.7037 C700.2526,549.7507 699.3436,549.8897 699.3436,550.4657 C699.3436,550.7717 699.5816,550.9017 699.9346,550.9017 C700.7866,550.9017 700.7976,550.3157 700.7976,549.7977 L700.7976,549.7037 Z M700.9906,551.9227 C700.9346,551.7097 700.9106,551.4867 700.9106,551.2637 C700.4566,551.8107 699.8096,552.0157 699.0136,552.0157 C697.9346,552.0157 696.9916,551.5327 696.9916,550.5867 C696.9916,549.8337 697.7076,549.3327 698.5146,549.1287 C699.2526,548.9427 700.0366,548.8687 700.7976,548.8317 L700.7976,548.7937 C700.7976,548.3667 700.6606,548.1997 700.1156,548.1997 C699.6736,548.1997 699.2986,548.3297 699.2306,548.7287 L697.1616,548.5717 C697.5026,547.3917 698.8776,547.0857 700.1846,547.0857 C700.8656,547.0857 701.7406,547.1597 702.3096,547.4947 C703.0696,547.9307 702.9786,548.5437 702.9786,549.2217 L702.9786,550.8837 C702.9786,551.2357 702.9906,551.5887 703.1606,551.9227 L700.9906,551.9227 Z" id="Fill-9801" fill="#0C6A8F"></path>
                <path d="M705.8991,547.1793 L705.8991,547.8203 L705.9211,547.8203 C706.2391,547.3363 706.8191,547.0853 707.5011,547.0853 C708.2161,547.0853 708.7851,547.3093 709.1361,547.8203 C709.5341,547.2893 710.1131,547.0853 710.8751,547.0853 C711.3631,547.0853 711.8851,547.2063 712.2261,547.4943 C712.6471,547.8473 712.6471,548.3113 712.6471,548.8133 L712.6471,551.9223 L710.4431,551.9223 L710.4431,549.0733 C710.4431,548.7663 710.4881,548.4223 709.9651,548.4223 C709.3301,548.4223 709.3521,548.9063 709.3521,549.2853 L709.3521,551.9223 L707.1481,551.9223 L707.1481,549.0733 C707.1481,548.7763 707.1261,548.3953 706.6371,548.3953 C706.1021,548.3953 706.0571,548.7203 706.0571,549.0733 L706.0571,551.9223 L703.8531,551.9223 L703.8531,547.1793 L705.8991,547.1793 Z" id="Fill-9802" fill="#0C6A8F"></path>
                <path d="M678.323,542.2643 C677.748,542.8383 676.814,542.8383 676.24,542.2643 C675.665,541.6893 675.665,540.7553 676.24,540.1813 C676.814,539.6063 677.748,539.6063 678.323,540.1813 C678.898,540.7553 678.898,541.6893 678.323,542.2643" id="Fill-9803" fill="#221F1F"></path>
            </g>
        </g>
    </g>
</svg>