<?xml version="1.0" encoding="utf-8"?>
<!-- Generator: Adobe Illustrator 25.0.0, SVG Export Plug-In . SVG Version: 6.00 Build 0)  -->
<svg version="1.1" id="Laag_1" xmlns="http://www.w3.org/2000/svg" xmlns:xlink="http://www.w3.org/1999/xlink" x="0px" y="0px"
	 viewBox="0 0 419.53 169.64" style="enable-background:new 0 0 419.53 169.64;" xml:space="preserve">
<style type="text/css">
	.st0{fill-rule:evenodd;clip-rule:evenodd;fill:#FFFFFF;}
	.st1{fill-rule:evenodd;clip-rule:evenodd;}
	.st2{fill:#FFFFFF;}
</style>
<g>
	<path class="st0" d="M354.87,124.84c18.37-0.06,30.94-12.63,30.88-30.82c-0.02-5.78,0.07-16.68-0.04-22.82
		c-0.32-17.54-12.25-30.75-30.8-30.89c-6.97-0.05-113.48-0.26-126.82,0.04c-18.16,0.41-30.95,14.15-30.88,30.82
		c0.05,11.41,0.07,14.06-0.2,23.59c-0.37,13.05-9.66,30.19-30.88,30.18C198.35,124.94,322.99,124.94,354.87,124.84z"/>
	<g>
		<g>
			<path class="st1" d="M354.72,31.25c20.68,0,39.18,17.43,39.14,39.23c-0.01,7.38,0.04,16.19,0.04,23.46
				c0,20.53-16.85,39.12-39.21,39.16c-2.09,0.01-281.25,0.03-286.87,0.03c-20.72,0-39.15-17.6-39.15-39.23
				c0-11.96-0.05-11.49-0.03-23.45c0.03-21.34,18.25-39.16,39.21-39.16C69.77,31.28,348.53,31.25,354.72,31.25z M354.69,124.75
				c18.37-0.06,30.94-12.63,30.88-30.82c-0.02-5.78,0.07-16.68-0.05-22.82c-0.32-17.54-12.25-30.75-30.8-30.89
				c-6.97-0.05-113.48-0.26-126.82,0.04c-18.16,0.41-30.95,14.15-30.88,30.82c0.05,11.41,0.07,14.06-0.2,23.59
				c-0.37,13.05-9.66,30.19-30.88,30.18C198.17,124.85,322.81,124.85,354.69,124.75z"/>
		</g>
		<g>
			<path class="st2" d="M97.41,68.23c-3.67-3.31-8.33-4.97-13.96-4.97c-5.64,0-10.29,1.66-13.96,4.97
				c-3.67,3.31-5.51,7.55-5.51,12.71c0,5.14,1.84,9.36,5.51,12.65c3.67,3.29,8.32,4.93,13.96,4.93c2.81,0,4.94-0.56,5.81-0.81
				c3.31-0.95,5.7-2.53,7.09-3.62c0,0.2,0,0.31,0,0.32c0,0,0,2.18,0,2.19c0,2.27-1.11,4.23-3.34,5.89c-2.47,1.86-5.66,2.8-9.56,2.8
				c-1.98,0-4.29-0.25-6.94-0.76c-2.65-0.5-4.94-1.13-6.87-1.87l-1.85,5.72c2.2,0.83,4.75,1.5,7.65,2c2.9,0.51,5.57,0.76,8.02,0.76
				c5.95,0,10.78-1.56,14.48-4.68c1.57-1.33,2.8-2.85,3.67-4.58c0.88-1.73,1.31-3.49,1.31-5.29V80.94
				C102.91,75.78,101.08,71.54,97.41,68.23z M96.35,80.94c0,0.02,0,0.49,0,1.25c-0.22,1.38,0,3.45-3.38,6.87
				c-0.28,0.29-1.37,1.38-3.15,2.24c-1.89,0.91-4.01,1.36-6.37,1.36c-3.73,0-6.81-1.1-9.25-3.3c-2.44-2.2-3.65-5.01-3.65-8.42
				c0-3.44,1.22-6.26,3.67-8.49c2.45-2.22,5.52-3.33,9.23-3.33c3.7,0,6.78,1.11,9.23,3.33c1.08,0.98,1.92,2.08,2.53,3.3
				C96.25,77.87,96.37,79.84,96.35,80.94z"/>
			<path class="st2" d="M142.31,68.58c-1.82-1.71-3.91-3.02-6.28-3.94c-2.37-0.92-4.87-1.38-7.49-1.38c-2.63,0-5.12,0.46-7.49,1.38
				c-2.37,0.92-4.46,2.24-6.28,3.94c-3.79,3.61-5.69,8.1-5.69,13.44c0,5.34,1.9,9.81,5.69,13.41c1.82,1.73,3.91,3.05,6.28,3.97
				c2.37,0.92,4.87,1.38,7.49,1.38c2.63,0,5.13-0.46,7.49-1.38c2.37-0.92,4.46-2.24,6.28-3.97c3.79-3.59,5.69-8.06,5.69-13.41
				C148,76.68,146.11,72.2,142.31,68.58z M137.65,91.13c-2.53,2.53-5.56,3.79-9.11,3.79c-3.55,0-6.58-1.26-9.11-3.79
				c-2.53-2.53-3.79-5.56-3.79-9.11c0-3.55,1.26-6.58,3.79-9.11c2.53-2.53,5.56-3.79,9.11-3.79c3.55,0,6.58,1.26,9.11,3.79
				c2.53,2.53,3.79,5.56,3.79,9.11C141.44,85.57,140.17,88.6,137.65,91.13z"/>
			<path class="st2" d="M150.26,63.97h6.64l8.76,28.66c0.29,1.06,0.95,1.58,1.99,1.58c1.03-0.07,1.71-0.6,2.02-1.58l8.76-28.66h6.6
				l-9.43,30.95c-0.54,1.71-1.53,3.11-2.98,4.21c-1.45,1.1-3.1,1.65-4.97,1.65c-1.86,0-3.53-0.56-4.98-1.67
				c-1.46-1.11-2.44-2.51-2.93-4.19L150.26,63.97z"/>
		</g>
		<g>
			<path d="M227.26,63.97h1.04v5.86h-1.04c-2.38,0-4.51,0.9-6.4,2.69c-1.89,1.8-2.83,3.84-2.83,6.13v21.46h-6.57V78.65
				c0-4.29,1.49-7.81,4.46-10.56C218.9,65.34,222.68,63.97,227.26,63.97z"/>
			<path d="M264.93,68.58c-1.82-1.71-3.91-3.02-6.28-3.94c-2.37-0.92-4.87-1.38-7.49-1.38c-2.63,0-5.12,0.46-7.49,1.38
				c-2.37,0.92-4.46,2.24-6.28,3.94c-3.8,3.61-5.69,8.1-5.69,13.44c0,5.34,1.9,9.81,5.69,13.41c1.82,1.73,3.91,3.05,6.28,3.97
				c2.37,0.92,4.87,1.38,7.49,1.38c2.63,0,5.12-0.46,7.49-1.38c2.37-0.92,4.46-2.24,6.28-3.97c3.8-3.59,5.69-8.06,5.69-13.41
				C270.63,76.68,268.73,72.2,264.93,68.58z M260.27,91.13c-2.53,2.53-5.57,3.79-9.11,3.79c-3.55,0-6.58-1.26-9.11-3.79
				c-2.53-2.53-3.79-5.56-3.79-9.11c0-3.55,1.26-6.58,3.79-9.11c2.53-2.53,5.56-3.79,9.11-3.79c3.55,0,6.59,1.26,9.11,3.79
				c2.53,2.53,3.79,5.56,3.79,9.11C264.06,85.57,262.8,88.6,260.27,91.13z"/>
			<path d="M307.98,68.58c-1.82-1.71-3.91-3.02-6.28-3.94c-2.37-0.92-4.87-1.38-7.5-1.38c-2.63,0-5.13,0.46-7.49,1.38
				c-2.37,0.92-4.46,2.24-6.28,3.94c-3.79,3.61-5.69,8.1-5.69,13.44c0,5.34,1.9,9.81,5.69,13.41c1.82,1.73,3.91,3.05,6.28,3.97
				c2.37,0.92,4.87,1.38,7.49,1.38c3.91,0,9.59-1.73,12.9-4.74v4.07h6.57V82.02C313.67,76.68,311.77,72.2,307.98,68.58z
				 M307.1,86.83c-0.87,2.44-3.06,4.51-6.77,6.54c-1.9,1.04-3.95,1.55-6.13,1.55c-3.55,0-6.58-1.26-9.11-3.79
				c-2.53-2.53-3.79-5.56-3.79-9.11c0-3.55,1.26-6.58,3.79-9.11c2.53-2.53,5.56-3.79,9.11-3.79c3.55,0,6.59,1.26,9.11,3.79
				c2.53,2.53,3.79,5.56,3.79,9.11V86.83z"/>
			<path d="M328.44,100.11h-6.57V75.75c0-3.53,1.27-6.49,3.82-8.89c2.55-2.4,5.67-3.6,9.38-3.6c1.84,0,3.69,0.49,5.56,1.47
				c1.86,0.98,3.29,2.22,4.28,3.72c1.03-1.5,2.5-2.74,4.41-3.72c1.91-0.98,3.76-1.47,5.56-1.47c3.71,0,6.83,1.2,9.36,3.59
				c2.54,2.39,3.81,5.36,3.81,8.91v24.35h-6.57V75.75c0-1.84-0.65-3.41-1.94-4.7c-1.29-1.29-2.85-1.94-4.66-1.94
				c-1.84,0-3.41,0.64-4.7,1.92c-1.29,1.28-1.94,2.85-1.94,4.72v24.35h-6.57V75.75c0-1.84-0.64-3.41-1.92-4.7
				c-1.28-1.29-2.84-1.94-4.68-1.94c-1.84,0-3.41,0.65-4.7,1.94c-1.29,1.29-1.94,2.86-1.94,4.7V100.11z"/>
		</g>
		<path class="st2" d="M70.11,38.9v5.81c-15.35,0.17-28.02,12.81-28.18,28.12h-5.8C36.3,54.19,51.45,39.07,70.11,38.9L70.11,38.9z"
			/>
		<path class="st2" d="M70.11,51.28v5.59c-9.75,0.11-15.9,6.24-16,15.96h-5.58C48.63,60.99,58.26,51.38,70.11,51.28L70.11,51.28z"/>
	</g>
</g>
</svg>
