<?xml version="1.0" encoding="UTF-8"?>
<svg width="87px" height="87px" viewBox="0 0 87 87" version="1.1" xmlns="http://www.w3.org/2000/svg" xmlns:xlink="http://www.w3.org/1999/xlink">
    <title>Stroke 11394</title>
    <defs>
        <polygon id="path-1" points="0 595.276 841.89 595.276 841.89 0 0 0"></polygon>
    </defs>
    <g id="Page-17" stroke="none" stroke-width="1" fill="none" fill-rule="evenodd">
        <g id="eduroam-Branding-GuideLines-April-2021" transform="translate(-588.000000, -79.000000)">
            <g id="Group-11265" transform="translate(0.000000, -0.000000)">
                <mask id="mask-2" fill="white">
                    <use xlink:href="#path-1"></use>
                </mask>
                <g id="Clip-11052"></g>
            </g>
            <path d="M604.3076,102.1298 L602.7266,100.5488 C606.4566,96.8178 611.4166,94.7638 616.6926,94.7638 C621.9676,94.7638 626.9276,96.8178 630.6576,100.5488 L629.0766,102.1298 C625.7686,98.8208 621.3706,96.9998 616.6916,96.9998 C612.0136,96.9998 607.6156,98.8208 604.3076,102.1298" id="Fill-11330" fill="#BDD6E5"></path>
            <path d="M607.6016,105.4228 L606.0206,103.8418 C608.8716,100.9908 612.6616,99.4218 616.6926,99.4218 C620.7236,99.4218 624.5136,100.9908 627.3636,103.8418 L625.7836,105.4228 C623.3546,102.9948 620.1266,101.6568 616.6926,101.6568 C613.2586,101.6578 610.0296,102.9948 607.6016,105.4228" id="Fill-11332" fill="#BDD6E5"></path>
            <path d="M610.895,108.7167 L609.314,107.1357 C611.285,105.1647 613.905,104.0797 616.692,104.0797 C619.479,104.0797 622.1,105.1647 624.07,107.1357 L622.489,108.7167 C620.941,107.1687 618.882,106.3167 616.692,106.3157 C614.502,106.3157 612.443,107.1687 610.895,108.7167" id="Fill-11334" fill="#BDD6E5"></path>
            <path d="M620.7769,110.4296 C619.7319,109.3846 618.2869,108.7386 616.6929,108.7386 C615.0969,108.7386 613.6529,109.3846 612.6079,110.4296 L616.6929,114.5136 L620.7769,110.4296 Z" id="Fill-11336" fill="#BDD6E5"></path>
            <path d="M634.1587,102.1298 L632.5777,100.5488 C636.3077,96.8178 641.2667,94.7638 646.5427,94.7638 C651.8187,94.7638 656.7787,96.8178 660.5087,100.5488 L658.9277,102.1298 C655.6197,98.8208 651.2207,96.9998 646.5427,96.9998 C641.8647,96.9998 637.4667,98.8208 634.1587,102.1298" id="Fill-11338" fill="#BDD6E5"></path>
            <path d="M637.4521,105.4228 L635.8711,103.8418 C638.7221,100.9908 642.5121,99.4218 646.5431,99.4218 C650.5741,99.4218 654.3641,100.9908 657.2151,103.8418 L655.6341,105.4228 C653.2051,102.9948 649.9771,101.6568 646.5431,101.6568 C643.1091,101.6578 639.8801,102.9948 637.4521,105.4228" id="Fill-11340" fill="#BDD6E5"></path>
            <path d="M640.7461,108.7167 L639.1651,107.1357 C641.1361,105.1647 643.7561,104.0797 646.5431,104.0797 C649.3301,104.0797 651.9501,105.1647 653.9211,107.1357 L652.3401,108.7167 C650.7911,107.1687 648.7331,106.3167 646.5431,106.3157 C644.3531,106.3157 642.2941,107.1687 640.7461,108.7167" id="Fill-11342" fill="#BDD6E5"></path>
            <path d="M650.6274,110.4296 C649.5824,109.3846 648.1384,108.7386 646.5434,108.7386 C644.9474,108.7386 643.5034,109.3846 642.4594,110.4296 L646.5434,114.5136 L650.6274,110.4296 Z" id="Fill-11344" fill="#BDD6E5"></path>
            <path d="M659.8872,103.0888 L661.4682,101.5088 C665.1982,105.2378 667.2532,110.1978 667.2532,115.4738 C667.2532,120.7488 665.1982,125.7088 661.4682,129.4398 L659.8872,127.8588 C663.1952,124.5508 665.0172,120.1518 665.0172,115.4738 C665.0172,110.7948 663.1952,106.3978 659.8872,103.0888" id="Fill-11346" fill="#BDD6E5"></path>
            <path d="M656.5937,106.3828 L658.1747,104.8018 C661.0247,107.6528 662.5947,111.4428 662.5947,115.4738 C662.5947,119.5048 661.0257,123.2948 658.1747,126.1458 L656.5937,124.5648 C659.0217,122.1358 660.3587,118.9078 660.3597,115.4738 C660.3587,112.0398 659.0217,108.8118 656.5937,106.3828" id="Fill-11348" fill="#BDD6E5"></path>
            <path d="M653.2998,109.6767 L654.8808,108.0957 C656.8518,110.0667 657.9368,112.6867 657.9368,115.4737 C657.9368,118.2607 656.8518,120.8807 654.8808,122.8517 L653.2998,121.2707 C654.8478,119.7227 655.7008,117.6637 655.7008,115.4737 C655.7008,113.2837 654.8478,111.2257 653.2998,109.6767" id="Fill-11350" fill="#BDD6E5"></path>
            <path d="M651.5869,119.5585 C652.6319,118.5125 653.2789,117.0695 653.2789,115.4735 C653.2789,113.8785 652.6319,112.4345 651.5869,111.3895 L647.5029,115.4735 L651.5869,119.5585 Z" id="Fill-11352" fill="#BDD6E5"></path>
            <path d="M603.4224,103.0888 L601.8414,101.5088 C598.1114,105.2378 596.0564,110.1978 596.0564,115.4738 C596.0564,120.7488 598.1114,125.7088 601.8414,129.4398 L603.4224,127.8588 C600.1144,124.5508 598.2924,120.1518 598.2924,115.4738 C598.2924,110.7948 600.1144,106.3978 603.4224,103.0888" id="Fill-11354" fill="#BDD6E5"></path>
            <path d="M606.7163,106.3828 L605.1353,104.8018 C602.2843,107.6528 600.7153,111.4428 600.7153,115.4738 C600.7153,119.5048 602.2843,123.2948 605.1353,126.1458 L606.7163,124.5648 C604.2873,122.1358 602.9503,118.9078 602.9503,115.4738 C602.9503,112.0398 604.2883,108.8118 606.7163,106.3828" id="Fill-11356" fill="#BDD6E5"></path>
            <path d="M610.0098,109.6767 L608.4288,108.0957 C606.4588,110.0667 605.3728,112.6867 605.3728,115.4737 C605.3728,118.2607 606.4588,120.8807 608.4288,122.8517 L610.0098,121.2707 C608.4618,119.7227 607.6088,117.6637 607.6088,115.4737 C607.6088,113.2837 608.4618,111.2257 610.0098,109.6767" id="Fill-11358" fill="#BDD6E5"></path>
            <path d="M611.7227,119.5585 C610.6777,118.5125 610.0307,117.0695 610.0307,115.4735 C610.0307,113.8785 610.6777,112.4345 611.7227,111.3895 L615.8067,115.4735 L611.7227,119.5585 Z" id="Fill-11360" fill="#BDD6E5"></path>
            <path d="M643.8467,114.204 L645.4277,115.785 C641.6977,119.516 636.7377,121.569 631.4617,121.569 C626.1867,121.569 621.2267,119.516 617.4967,115.785 L619.0777,114.204 C622.3857,117.512 626.7837,119.334 631.4627,119.334 C636.1407,119.334 640.5387,117.512 643.8467,114.204" id="Fill-11362" fill="#BDD6E5"></path>
            <path d="M640.5527,110.9101 L642.1337,112.4911 C639.2827,115.3421 635.4927,116.9121 631.4617,116.9121 C627.4307,116.9121 623.6407,115.3421 620.7907,112.4911 L622.3707,110.9101 C624.7997,113.3391 628.0277,114.6761 631.4617,114.6761 C634.8957,114.6761 638.1247,113.3391 640.5527,110.9101" id="Fill-11364" fill="#BDD6E5"></path>
            <path d="M637.2593,107.6161 L638.8403,109.1971 C636.8693,111.1681 634.2493,112.2541 631.4623,112.2541 C628.6753,112.2541 626.0543,111.1681 624.0843,109.1971 L625.6653,107.6161 C627.2133,109.1651 629.2723,110.0171 631.4623,110.0171 C633.6523,110.0171 635.7113,109.1651 637.2593,107.6161" id="Fill-11366" fill="#BDD6E5"></path>
            <path d="M627.3779,105.9042 C628.4229,106.9492 629.8669,107.5952 631.4619,107.5952 C633.0569,107.5952 634.5009,106.9492 635.5459,105.9042 L631.4619,101.8192 L627.3779,105.9042 Z" id="Fill-11368" fill="#BDD6E5"></path>
            <path d="M634.0708,131.8046 L632.4898,130.2236 C636.2198,126.4926 641.1798,124.4396 646.4548,124.4396 C651.7308,124.4396 656.6908,126.4926 660.4208,130.2236 L658.8398,131.8046 C655.5318,128.4966 651.1338,126.6746 646.4548,126.6746 C641.7768,126.6746 637.3788,128.4966 634.0708,131.8046" id="Fill-11370" fill="#BDD6E5"></path>
            <path d="M637.3647,135.0986 L635.7837,133.5176 C638.6347,130.6666 642.4247,129.0966 646.4547,129.0976 C650.4867,129.0976 654.2767,130.6666 657.1267,133.5176 L655.5457,135.0986 C653.1177,132.6696 649.8897,131.3326 646.4547,131.3326 C643.0217,131.3326 639.7927,132.6696 637.3647,135.0986" id="Fill-11372" fill="#BDD6E5"></path>
            <path d="M640.6582,138.3925 L639.0772,136.8115 C641.0482,134.8405 643.6682,133.7545 646.4552,133.7545 C649.2422,133.7555 651.8632,134.8405 653.8332,136.8115 L652.2522,138.3925 C650.7042,136.8435 648.6452,135.9915 646.4552,135.9915 C644.2652,135.9915 642.2062,136.8435 640.6582,138.3925" id="Fill-11374" fill="#BDD6E5"></path>
            <path d="M650.5396,140.1054 C649.4946,139.0594 648.0506,138.4134 646.4556,138.4134 C644.8606,138.4134 643.4166,139.0594 642.3716,140.1054 L646.4556,144.1894 L650.5396,140.1054 Z" id="Fill-11376" fill="#BDD6E5"></path>
            <path d="M604.188,131.8046 L602.607,130.2236 C606.337,126.4926 611.297,124.4396 616.573,124.4396 C621.848,124.4396 626.808,126.4926 630.538,130.2236 L628.957,131.8046 C625.649,128.4966 621.251,126.6746 616.572,126.6746 C611.894,126.6746 607.496,128.4966 604.188,131.8046" id="Fill-11378" fill="#BDD6E5"></path>
            <path d="M607.4819,135.0986 L605.9009,133.5176 C608.7519,130.6666 612.5419,129.0966 616.5729,129.0976 C620.6039,129.0976 624.3939,130.6666 627.2439,133.5176 L625.6639,135.0986 C623.2349,132.6696 620.0069,131.3326 616.5729,131.3326 C613.1389,131.3326 609.9099,132.6696 607.4819,135.0986" id="Fill-11380" fill="#BDD6E5"></path>
            <path d="M610.7754,138.3925 L609.1944,136.8115 C611.1654,134.8405 613.7854,133.7545 616.5724,133.7545 C619.3594,133.7555 621.9804,134.8405 623.9504,136.8115 L622.3694,138.3925 C620.8214,136.8435 618.7624,135.9915 616.5724,135.9915 C614.3824,135.9915 612.3234,136.8435 610.7754,138.3925" id="Fill-11382" fill="#BDD6E5"></path>
            <path d="M620.6572,140.1054 C619.6122,139.0594 618.1672,138.4134 616.5732,138.4134 C614.9772,138.4134 613.5332,139.0594 612.4882,140.1054 L616.5732,144.1894 L620.6572,140.1054 Z" id="Fill-11384" fill="#BDD6E5"></path>
            <path d="M619.2334,146.9052 L617.6524,145.3242 C621.3824,141.5942 626.3424,139.5402 631.6174,139.5402 C636.8934,139.5402 641.8534,141.5942 645.5834,145.3242 L644.0024,146.9052 C640.6944,143.5972 636.2954,141.7752 631.6174,141.7752 C626.9394,141.7752 622.5414,143.5972 619.2334,146.9052" id="Fill-11386" fill="#BDD6E5"></path>
            <path d="M622.5269,150.1992 L620.9459,148.6182 C623.7969,145.7672 627.5869,144.1982 631.6179,144.1982 C635.6489,144.1982 639.4389,145.7672 642.2899,148.6182 L640.7089,150.1992 C638.2799,147.7702 635.0519,146.4332 631.6179,146.4332 C628.1839,146.4332 624.9549,147.7712 622.5269,150.1992" id="Fill-11388" fill="#BDD6E5"></path>
            <path d="M625.8208,153.4931 L624.2398,151.9121 C626.2108,149.9411 628.8308,148.8551 631.6178,148.856099 C634.4048,148.856099 637.0248,149.9411 638.9958,151.9121 L637.4148,153.4931 C635.8658,151.9441 633.8078,151.0921 631.6178,151.0921 C629.4278,151.0921 627.3688,151.9441 625.8208,153.4931" id="Fill-11390" fill="#BDD6E5"></path>
            <path d="M635.7021,155.206 C634.6571,154.16 633.2131,153.514 631.6181,153.514 C630.0231,153.514 628.5781,154.16 627.5341,155.206 L631.6181,159.29 L635.7021,155.206 Z" id="Fill-11392" fill="#BDD6E5"></path>
        </g>
    </g>
</svg>